<svg xmlns="http://www.w3.org/2000/svg">
  <symbol id="burger" viewBox="0 0 18 14">
    <path d="M0 7H18" stroke="currentColor" stroke-width="2"/>
    <path d="M0 1H18" stroke="currentColor" stroke-width="2"/>
    <path d="M0 13H18" stroke="currentColor" stroke-width="2"/>
  </symbol>
  <symbol id="card" viewBox="0 0 77 53">
    <path d="M68.9792 0.833313H8.02078C3.59975 0.833313 0 4.43306 0 8.85425V44.146C0 48.567 3.59975 52.1667 8.02078 52.1667H68.9791C73.4001 52.1667 76.9998 48.567 76.9998 44.146V8.85425C77 4.43306 73.4002 0.833313 68.9792 0.833313ZM73.7917 44.1458C73.7917 46.7992 71.6326 48.9583 68.9792 48.9583H8.02078C5.36744 48.9583 3.20828 46.7992 3.20828 44.1458V8.85425C3.20828 6.20091 5.36744 4.04175 8.02078 4.04175H68.9791C71.6324 4.04175 73.7916 6.20091 73.7916 8.85425V44.1458H73.7917Z" fill="currentColor"/>
    <path d="M75.3958 10.4583H1.60422C0.718717 10.4583 0 11.177 0 12.0625V21.6875C0 22.573 0.718717 23.2917 1.60422 23.2917H75.3959C76.2814 23.2917 77.0001 22.573 77.0001 21.6875V12.0625C77 11.177 76.2813 10.4583 75.3958 10.4583ZM73.7917 20.0833H3.20828V13.6665H73.7916V20.0833H73.7917Z" fill="currentColor"/>
    <path d="M30.4792 32.9167H11.2292C10.3437 32.9167 9.625 33.6355 9.625 34.521C9.625 35.4065 10.3437 36.125 11.2292 36.125H30.4792C31.3647 36.125 32.0834 35.4063 32.0834 34.5208C32.0834 33.6353 31.3647 32.9167 30.4792 32.9167Z" fill="currentColor"/>
    <path d="M30.4792 39.3333H11.2292C10.3437 39.3333 9.625 40.052 9.625 40.9375C9.625 41.823 10.3437 42.5417 11.2292 42.5417H30.4792C31.3647 42.5417 32.0834 41.823 32.0834 40.9375C32.0833 40.052 31.3647 39.3333 30.4792 39.3333Z" fill="currentColor"/>
    <path d="M62.5628 29.7083H59.3545C56.7011 29.7083 54.542 31.8675 54.542 34.5208V37.7291C54.542 40.3824 56.7011 42.5416 59.3545 42.5416H62.5628C65.2161 42.5416 67.3753 40.3824 67.3753 37.7291V34.5208C67.3753 31.8676 65.2161 29.7083 62.5628 29.7083ZM64.167 37.7292C64.167 38.6147 63.4483 39.3335 62.5628 39.3335H59.3545C58.469 39.3335 57.7503 38.6147 57.7503 37.7292V34.521C57.7503 33.6355 58.469 32.9167 59.3545 32.9167H62.5628C63.4483 32.9167 64.167 33.6355 64.167 34.521V37.7292Z" fill="currentColor"/>
  </symbol>
  <symbol id="UAH" viewBox="0 0 22 22">
    <path d="M11 21C16.5228 21 21 16.5228 21 11C21 5.47715 16.5228 1 11 1C5.47715 1 1 5.47715 1 11C1 16.5228 5.47715 21 11 21Z" stroke="currentColor" stroke-width="2" stroke-linecap="round" stroke-linejoin="round"/>
    <path d="M7.25 13.4141C7.25 13.112 7.28906 12.8229 7.36719 12.5469H6.57812V11.3672H7.97656C8.34115 10.9349 8.86719 10.5495 9.55469 10.2109H6.57812V9.03125H11.9297C12.2057 8.76562 12.3438 8.42969 12.3438 8.02344C12.3438 7.67448 12.2188 7.40625 11.9688 7.21875C11.7188 7.02604 11.3568 6.92969 10.8828 6.92969C10.4922 6.92969 10.0911 6.97917 9.67969 7.07812C9.27344 7.17708 8.76302 7.35156 8.14844 7.60156L7.42969 5.71875C8.61198 5.18229 9.82812 4.91406 11.0781 4.91406C12.2135 4.91406 13.1016 5.1901 13.7422 5.74219C14.388 6.28906 14.7109 7.0651 14.7109 8.07031C14.7109 8.41406 14.6667 8.73438 14.5781 9.03125H15.3984V10.2109H13.9062C13.6667 10.4766 13.388 10.6979 13.0703 10.875C12.7578 11.0521 12.4297 11.2161 12.0859 11.3672H15.3984V12.5469H9.92969C9.72656 12.7812 9.625 13.0703 9.625 13.4141C9.625 13.8047 9.76302 14.1094 10.0391 14.3281C10.3151 14.5469 10.7318 14.6562 11.2891 14.6562C12.3359 14.6562 13.4557 14.4115 14.6484 13.9219V15.9375C13.6693 16.4167 12.5 16.6562 11.1406 16.6562C9.89062 16.6562 8.92969 16.3828 8.25781 15.8359C7.58594 15.2839 7.25 14.4766 7.25 13.4141Z" fill="currentColor"/>
  </symbol>
  <symbol id="ekta" viewBox="0 0 160 159">
    <path d="M120.647 17.6849L80.9543 0.309968C80.2794 0.0154111 79.5122 0.0154111 78.8373 0.309968L39.1444 17.6849C38.1805 18.1056 37.5572 19.0571 37.5566 20.1088V61.6541C37.571 70.9908 42.0576 79.7554 49.6233 85.2265L77.0564 105.012C78.7507 106.238 81.0409 106.238 82.7352 105.012L110.168 85.2291C117.734 79.758 122.221 70.9934 122.235 61.6568V20.1088C122.234 19.0571 121.611 18.1056 120.647 17.6849ZM116.943 61.6568C116.93 69.2935 113.261 76.4621 107.072 80.937L79.8958 100.537L52.7194 80.937C46.5311 76.4621 42.8612 69.2935 42.849 61.6568V21.8394L79.8958 5.62353L116.943 21.8394V61.6568Z" fill="currentColor"/>
    <path d="M78.8365 11.8633L49.7283 24.6074C48.7645 25.028 48.1412 25.9796 48.1406 27.0313V61.6568C48.1488 67.5939 51.0024 73.1674 55.8146 76.6449L78.347 92.8978C79.2713 93.5646 80.5187 93.5646 81.443 92.8978L103.975 76.6449C108.788 73.1674 111.641 67.5939 111.649 61.6568V27.0313C111.649 25.9796 111.026 25.028 110.062 24.6074L80.9535 11.8633C80.2786 11.5687 79.5115 11.5687 78.8365 11.8633ZM106.357 28.7592V61.6568C106.349 65.8935 104.312 69.87 100.879 72.3527L79.895 87.489L58.9107 72.3527C55.4776 69.87 53.4411 65.8935 53.433 61.6568V28.7592L79.895 17.1768L106.357 28.7592Z" fill="currentColor"/>
    <path d="M66.0187 56.3819L61.1789 56.3819L61.1789 52.4516L64.9721 52.4516C65.1874 52.4516 65.3733 52.3998 65.5049 52.2729C65.6374 52.1451 65.6924 51.9632 65.6924 51.7525L65.6924 51.2795C65.6924 51.0688 65.6374 50.8869 65.5049 50.7591C65.3733 50.6322 65.1874 50.5804 64.9721 50.5804L61.1789 50.5804L61.1789 46.8708L66.0514 46.8708C66.2667 46.8708 66.4526 46.819 66.5842 46.6921C66.7167 46.5643 66.7716 46.3824 66.7716 46.1717L66.7716 45.6987C66.7716 45.488 66.7167 45.3061 66.5842 45.1784C66.4526 45.0515 66.2667 44.9996 66.0514 44.9996L59.9027 44.9996C59.6873 44.9996 59.5014 45.0515 59.3698 45.1784C59.2658 45.2787 59.2096 45.4124 59.1902 45.5672L59.1497 45.5672L59.1497 45.6987L59.1497 57.554C59.1497 57.7703 59.2159 57.9509 59.3513 58.0762C59.4851 58.2 59.6683 58.2531 59.87 58.2531L66.0187 58.2531C66.234 58.2531 66.4199 58.2013 66.5515 58.0744C66.684 57.9466 66.7389 57.7647 66.7389 57.554L66.7389 57.081C66.7389 56.8703 66.684 56.6884 66.5515 56.5607C66.4199 56.4338 66.234 56.3819 66.0187 56.3819Z" fill="currentColor" stroke="black" stroke-width="0.263158"/>
    <path d="M77.7974 45.9073L77.7974 45.9073L77.7986 45.9057C77.9267 45.7411 77.9478 45.526 77.8784 45.3508C77.8069 45.1706 77.6383 45.0312 77.4004 45.0312L76.5827 45.0312C76.3728 45.0312 76.2025 45.0649 76.059 45.1412C75.9161 45.2172 75.8118 45.3291 75.7228 45.4654L71.4814 51.0467L71.4814 45.7304C71.4814 45.5196 71.4265 45.3377 71.2939 45.21C71.1623 45.0831 70.9764 45.0312 70.7611 45.0312L70.1724 45.0312C69.9771 45.0312 69.7923 45.0735 69.6601 45.1903C69.5235 45.311 69.4674 45.4889 69.4848 45.7043L69.4848 57.491C69.4848 57.7073 69.551 57.8879 69.6864 58.0132C69.8202 58.137 70.0034 58.1901 70.2051 58.1901L70.7938 58.1901C71.0091 58.1901 71.195 58.1383 71.3266 58.0114C71.4592 57.8836 71.5141 57.7017 71.5141 57.491L71.5141 53.7851L72.8009 52.178L75.8125 57.6791C75.9005 57.8484 76.0047 57.9813 76.1513 58.069C76.2978 58.1566 76.4714 58.1901 76.6808 58.1901L77.4331 58.1901C77.6716 58.1901 77.8522 58.0817 77.9391 57.9087C78.0231 57.7412 78.0072 57.5367 77.9071 57.3627C77.907 57.3626 77.9069 57.3624 77.9068 57.3623L74.0593 50.5672L77.7974 45.9073Z" fill="black" stroke="currentColor" stroke-width="0.263158"/>
    <path d="M79.952 46.8708L82.2733 46.8708L82.2733 57.5225C82.2733 57.7332 82.3283 57.9151 82.4608 58.0428C82.5924 58.1697 82.7783 58.2216 82.9936 58.2216L83.5823 58.2216C83.7977 58.2216 83.9836 58.1697 84.1152 58.0428C84.2477 57.9151 84.3026 57.7332 84.3026 57.5225L84.3026 46.8708L86.6894 46.8708C86.9047 46.8708 87.0906 46.819 87.2222 46.6921C87.3548 46.5643 87.4097 46.3824 87.4097 46.1717L87.4097 45.6987C87.4097 45.488 87.3548 45.3061 87.2222 45.1784C87.0906 45.0515 86.9047 44.9996 86.6894 44.9996L79.952 44.9996C79.7367 44.9996 79.5508 45.0515 79.4191 45.1784C79.2866 45.3061 79.2317 45.488 79.2317 45.6987L79.2317 46.1717C79.2317 46.3824 79.2866 46.5643 79.4191 46.6921C79.5508 46.819 79.7367 46.8708 79.952 46.8708Z" fill="black" stroke="currentColor" stroke-width="0.263158"/>
    <path d="M91.3342 57.5219L91.3342 53.8384L95.6499 53.8384L95.6499 57.5219C95.6499 57.7326 95.7048 57.9145 95.8373 58.0423C95.9689 58.1692 96.1548 58.221 96.3702 58.221L96.9589 58.221C97.1742 58.221 97.3601 58.1692 97.4917 58.0423C97.6242 57.9145 97.6792 57.7326 97.6792 57.5219L97.6792 48.9142C97.6792 47.5599 97.2349 46.5291 96.4838 45.8378C95.7344 45.1482 94.694 44.8099 93.5248 44.8099C92.3555 44.8099 91.3151 45.1482 90.5657 45.8378C89.8391 46.5065 89.3997 47.4929 89.3718 48.7826L89.3049 48.7826L89.3049 48.9142L89.3049 57.5219C89.3049 57.7326 89.3598 57.9145 89.4924 58.0423C89.624 58.1692 89.8099 58.221 90.0252 58.221L90.6139 58.221C90.8293 58.221 91.0152 58.1692 91.1468 58.0423C91.2793 57.9145 91.3342 57.7326 91.3342 57.5219ZM95.6826 49.0719L95.6826 51.9987L91.3669 51.9987L91.3669 49.0719C91.3669 48.1324 91.6142 47.5336 91.993 47.1684C92.3728 46.8023 92.9068 46.6495 93.5248 46.6495C94.1242 46.6495 94.6592 46.8091 95.0442 47.1802C95.4281 47.5503 95.6826 48.1499 95.6826 49.0719Z" fill="currentColor" stroke="currentColor" stroke-width="0.263158"/>
    <path d="M102.028 43.6805L102.027 43.6805L102.028 43.6862C102.057 44.3582 101.473 44.9363 100.72 44.9363C100.003 44.9363 99.4126 44.3601 99.4126 43.6805C99.4126 43.001 100.003 42.4248 100.72 42.4248C101.437 42.4248 102.028 43.001 102.028 43.6805ZM100.72 41.1842C99.311 41.1842 98.1682 42.2791 98.1682 43.649C98.1682 45.0189 99.311 46.1138 100.72 46.1138C102.128 46.1138 103.271 45.0198 103.272 43.6507C103.306 42.276 102.125 41.1842 100.72 41.1842Z" fill="black" stroke="currentColor" stroke-width="0.263158"/>
    <path d="M22.4333 87.9415L16.7096 74.5676C15.4924 71.8104 12.8967 69.9119 9.90021 69.5874C6.90376 69.2629 3.96181 70.5617 2.18257 72.9944C0.403319 75.4272 0.057082 78.6243 1.27428 81.3816L11.6447 104.194C13.0438 107.283 14.9901 110.092 17.3896 112.488L33.6982 128.799C32.7797 129.772 32.2668 131.059 32.2639 132.398V153.567C32.2639 156.49 34.6334 158.86 37.5563 158.86H66.6645C69.5874 158.86 71.9569 156.49 71.9569 153.567V132.398C71.9569 129.475 69.5874 127.105 66.6645 127.105V122.181C66.7456 115.914 64.701 109.804 60.864 104.848C58.6145 101.889 55.5487 99.6533 52.0443 98.4152C46.4709 96.0735 41.3453 92.7842 36.8948 88.693C32.7636 85.2906 26.8948 84.9856 22.4333 87.9415ZM66.6645 153.567H37.5563V132.398H66.6645V153.567ZM56.7333 108.153C59.8178 112.172 61.4526 117.115 61.3721 122.181V127.105H39.4907L21.1314 108.746C19.1815 106.799 17.5992 104.516 16.4608 102.006L6.09036 79.1932C5.64779 78.2195 5.73016 77.0877 6.30904 76.1883C6.88791 75.289 7.88401 74.7453 8.95355 74.7449C10.2122 74.7439 11.3497 75.4949 11.8432 76.6528L17.7627 90.458C19.3346 94.1413 21.6004 97.4878 24.4365 100.315L36.5243 112.406C37.1887 113.094 38.1726 113.369 39.0977 113.127C40.0229 112.885 40.7455 112.163 40.9876 111.237C41.2298 110.312 40.9539 109.328 40.266 108.664L28.1782 96.5734C26.9627 95.3608 25.8698 94.0313 24.9154 92.6041C27.4567 90.6486 31.0118 90.7079 33.4865 92.747C38.4331 97.2867 44.1503 100.907 50.3692 103.438C52.903 104.359 55.1141 105.997 56.7333 108.153Z" fill="currentColor"/>
    <path d="M58.726 140.336H56.0798C54.6183 140.336 53.4336 141.521 53.4336 142.982C53.4336 144.444 54.6183 145.629 56.0798 145.629H58.726C60.1874 145.629 61.3722 144.444 61.3722 142.982C61.3722 141.521 60.1874 140.336 58.726 140.336Z" fill="currentColor"/>
    <path d="M148.146 104.194L158.517 81.3816C159.792 78.615 159.476 75.3759 157.691 72.9073C155.906 70.4388 152.929 69.1243 149.902 69.4683C146.876 69.8123 144.269 71.7614 143.084 74.5676L137.373 87.8912C132.896 84.9499 127.025 85.2719 122.896 88.6851C118.446 92.7762 113.32 96.0656 107.747 98.4072C104.242 99.6453 101.176 101.881 98.9269 104.84C95.0882 109.798 93.0435 115.911 93.1264 122.181V127.105C90.2035 127.105 87.834 129.475 87.834 132.398V153.567C87.834 156.49 90.2035 158.86 93.1264 158.86H122.235C125.157 158.86 127.527 156.49 127.527 153.567V132.398C127.524 131.059 127.011 129.772 126.093 128.799L142.401 112.488C144.801 110.092 146.747 107.283 148.146 104.194ZM122.235 153.567H93.1264V132.398H122.235V153.567ZM120.3 127.105H98.4188V122.181C98.3389 117.116 99.9737 112.174 103.058 108.156C104.673 106.001 106.879 104.362 109.408 103.438C115.628 100.908 121.347 97.2874 126.294 92.747C128.766 90.6924 132.331 90.6231 134.881 92.5803C133.924 94.018 132.825 95.3566 131.602 96.576L119.514 108.667C118.511 109.705 118.526 111.355 119.547 112.376C120.567 113.397 122.218 113.411 123.256 112.408L135.344 100.318C138.18 97.4904 140.446 94.1439 142.018 90.4607L147.937 76.6528C148.432 75.4964 149.569 74.7468 150.827 74.7475C151.896 74.7479 152.892 75.2916 153.471 76.191C154.05 77.0903 154.132 78.2221 153.69 79.1958L143.319 102.009C142.181 104.518 140.599 106.801 138.649 108.749L120.3 127.105Z" fill="currentColor"/>
    <path d="M103.711 140.336H101.065C99.6037 140.336 98.4189 141.521 98.4189 142.982C98.4189 144.444 99.6037 145.629 101.065 145.629H103.711C105.173 145.629 106.358 144.444 106.358 142.982C106.358 141.521 105.173 140.336 103.711 140.336Z" fill="currentColor"/>
  </symbol>
  <symbol id="email" viewBox="0 0 65 49">
    <path d="M58.9062 0.124939H6.09379C2.73347 0.124939 0 2.85841 0 6.21873V42.7812C0 46.1415 2.73347 48.875 6.09379 48.875H58.9062C62.2665 48.875 65 46.1415 65 42.7812V6.21873C65 2.85841 62.2665 0.124939 58.9062 0.124939ZM58.9062 4.18742C59.1822 4.18742 59.4447 4.24468 59.6848 4.34468L32.5 27.9059L5.31511 4.34468C5.55513 4.24482 5.81768 4.18742 6.09366 4.18742H58.9062ZM58.9062 44.8124H6.09379C4.97305 44.8124 4.06248 43.902 4.06248 42.7811V8.63674L31.1689 32.129C31.5518 32.4602 32.0259 32.6249 32.5 32.6249C32.9741 32.6249 33.4482 32.4604 33.8311 32.129L60.9375 8.63674V42.7812C60.9374 43.902 60.0269 44.8124 58.9062 44.8124Z" fill="currentColor"/>
  </symbol>
  <symbol id="info" viewBox="0 0 22 22">
    <path d="M11 21C16.5228 21 21 16.5228 21 11C21 5.47715 16.5228 1 11 1C5.47715 1 1 5.47715 1 11C1 16.5228 5.47715 21 11 21Z" stroke="currentColor" stroke-width="2" stroke-linecap="round" stroke-linejoin="round"/>
    <path d="M11 15V11" stroke="currentColor" stroke-width="2" stroke-linecap="round" stroke-linejoin="round"/>
    <path d="M11 7H11.01" stroke="currentColor" stroke-width="2" stroke-linecap="round" stroke-linejoin="round"/>
  </symbol>
  <symbol id="lang" viewBox="0 0 22 22">
    <path d="M11 21C16.5228 21 21 16.5228 21 11C21 5.47715 16.5228 1 11 1C5.47715 1 1 5.47715 1 11C1 16.5228 5.47715 21 11 21Z" stroke="currentColor" stroke-width="2" stroke-linecap="round" stroke-linejoin="round"/>
    <path d="M1 11H21" stroke="currentColor" stroke-width="2" stroke-linecap="round" stroke-linejoin="round"/>
    <path d="M11 1C13.5013 3.73835 14.9228 7.29203 15 11C14.9228 14.708 13.5013 18.2616 11 21C8.49872 18.2616 7.07725 14.708 7 11C7.07725 7.29203 8.49872 3.73835 11 1V1Z" stroke="currentColor" stroke-width="2" stroke-linecap="round" stroke-linejoin="round"/>
  </symbol>
  <symbol id="list" viewBox="0 0 18 22">
    <path d="M11 1H3C2.46957 1 1.96086 1.21071 1.58579 1.58579C1.21071 1.96086 1 2.46957 1 3V19C1 19.5304 1.21071 20.0391 1.58579 20.4142C1.96086 20.7893 2.46957 21 3 21H15C15.5304 21 16.0391 20.7893 16.4142 20.4142C16.7893 20.0391 17 19.5304 17 19V7L11 1Z" stroke="currentColor" stroke-width="2" stroke-linecap="round" stroke-linejoin="round"/>
    <path d="M11 1V7H17" stroke="currentColor" stroke-width="2" stroke-linecap="round" stroke-linejoin="round"/>
    <path d="M13 12H5" stroke="currentColor" stroke-width="2" stroke-linecap="round" stroke-linejoin="round"/>
    <path d="M13 16H5" stroke="currentColor" stroke-width="2" stroke-linecap="round" stroke-linejoin="round"/>
    <path d="M7 8H6H5" stroke="currentColor" stroke-width="2" stroke-linecap="round" stroke-linejoin="round"/>
  </symbol>
  <symbol id="lists" viewBox="0 0 82 63">
    <path fill-rule="evenodd" clip-rule="evenodd" d="M55.5421 3.69178H27.9515C26.1588 3.69178 24.7055 5.13816 24.7055 6.92238V56.189C24.7055 57.9731 26.1588 59.4196 27.9515 59.4196H55.5421C57.3347 59.4196 58.7881 57.9731 58.7881 56.189V6.92238C58.7881 5.13816 57.3347 3.69178 55.5421 3.69178ZM27.9515 0.461182C24.3661 0.461182 21.4596 3.35394 21.4596 6.92238V7.32621H6.85276C3.26735 7.32621 0.36084 10.219 0.36084 13.7874V50.1317C0.36084 53.7003 3.26735 56.5929 6.85276 56.5929H21.472C21.6815 59.9733 24.5024 62.6502 27.9515 62.6502H55.5421C58.9914 62.6502 61.8121 59.9733 62.0215 56.5929H75.0179C78.6034 56.5929 81.5098 53.7003 81.5098 50.1317V13.7874C81.5098 10.219 78.6034 7.32621 75.0179 7.32621H62.034V6.92238C62.034 3.35394 59.1277 0.461182 55.5421 0.461182H27.9515ZM62.034 10.5568V15.4027H71.7719C72.6682 15.4027 73.3949 16.1259 73.3949 17.018C73.3949 17.9101 72.6682 18.6333 71.7719 18.6333H62.034V27.5175H71.7719C72.6682 27.5175 73.3949 28.2407 73.3949 29.1328C73.3949 30.0248 72.6682 30.7481 71.7719 30.7481H62.034V37.2093H71.7719C72.6682 37.2093 73.3949 37.9325 73.3949 38.8246C73.3949 39.7166 72.6682 40.4399 71.7719 40.4399H62.034V53.3623H75.0179C76.8104 53.3623 78.2638 51.9158 78.2638 50.1317V13.7874C78.2638 12.0032 76.8104 10.5568 75.0179 10.5568H62.034ZM6.85276 10.5568H21.4596V14.9989H11.7217C10.8254 14.9989 10.0987 15.7221 10.0987 16.6142C10.0987 17.5063 10.8254 18.2295 11.7217 18.2295H21.4596V53.3623H6.85276C5.06005 53.3623 3.6068 51.9158 3.6068 50.1317V13.7874C3.6068 12.0032 5.06005 10.5568 6.85276 10.5568ZM17.7615 27.4246C18.3823 26.7811 18.3613 25.7586 17.7147 25.1407C17.0681 24.5229 16.0407 24.5438 15.4199 25.1873L13.3069 27.378L12.7059 26.9219C11.9931 26.3809 10.9747 26.5175 10.4312 27.2269C9.88769 27.9363 10.0249 28.9499 10.7377 29.4908L12.4905 30.8211C13.1467 31.3191 14.0739 31.2477 14.6454 30.6552L17.7615 27.4246ZM17.7147 34.8323C18.3613 35.4502 18.3823 36.4727 17.7615 37.1164L14.6454 40.347C14.0739 40.9394 13.1467 41.0109 12.4905 40.513L10.7377 39.1828C10.0249 38.6416 9.88769 37.628 10.4312 36.9185C10.9747 36.2094 11.9931 36.0729 12.7059 36.6136L13.3069 37.0699L15.4199 34.8792C16.0407 34.2356 17.0681 34.2147 17.7147 34.8323ZM31.1974 8.53768C30.3011 8.53768 29.5745 9.26089 29.5745 10.153C29.5745 11.0451 30.3011 11.7683 31.1974 11.7683H52.2962C53.1925 11.7683 53.9191 11.0451 53.9191 10.153C53.9191 9.26089 53.1925 8.53768 52.2962 8.53768H31.1974ZM33.6319 16.6142C33.6319 15.7221 34.3586 14.9989 35.2549 14.9989H48.2387C49.135 14.9989 49.8617 15.7221 49.8617 16.6142C49.8617 17.5063 49.135 18.2295 48.2387 18.2295H35.2549C34.3586 18.2295 33.6319 17.5063 33.6319 16.6142ZM37.2374 27.4246C37.8581 26.7811 37.837 25.7586 37.1903 25.1407C36.5439 24.5229 35.5166 24.5438 34.8958 25.1873L32.7827 27.378L32.1818 26.9219C31.4689 26.3809 30.4505 26.5175 29.9068 27.2269C29.3634 27.9363 29.5007 28.9499 30.2135 29.4908L31.9663 30.8211C32.6224 31.3191 33.5495 31.2477 34.1212 30.6552L37.2374 27.4246ZM40.9353 28.7289C40.9353 27.8368 41.662 27.1136 42.5583 27.1136H52.2962C53.1925 27.1136 53.9191 27.8368 53.9191 28.7289C53.9191 29.621 53.1925 30.3442 52.2962 30.3442H42.5583C41.662 30.3442 40.9353 29.621 40.9353 28.7289ZM37.2374 37.1164C37.8581 36.4727 37.837 35.4502 37.1903 34.8323C36.5439 34.2147 35.5166 34.2356 34.8958 34.8792L32.7827 37.0699L32.1818 36.6136C31.4689 36.0729 30.4505 36.2094 29.9068 36.9185C29.3634 37.628 29.5007 38.6416 30.2135 39.1828L31.9663 40.513C32.6224 41.0109 33.5495 40.9394 34.1212 40.347L37.2374 37.1164ZM40.9353 38.4207C40.9353 37.5287 41.662 36.8054 42.5583 36.8054H52.2962C53.1925 36.8054 53.9191 37.5287 53.9191 38.4207C53.9191 39.3128 53.1925 40.036 52.2962 40.036H42.5583C41.662 40.036 40.9353 39.3128 40.9353 38.4207ZM37.2374 46.8082C37.8581 46.1645 37.837 45.142 37.1903 44.5241C36.5439 43.9067 35.5166 43.9273 34.8958 44.571L32.7827 46.7617L32.1818 46.3054C31.4689 45.7647 30.4505 45.9012 29.9068 46.6103C29.3634 47.3198 29.5007 48.3334 30.2135 48.8746L31.9663 50.2048C32.6224 50.7027 33.5495 50.6312 34.1212 50.0388L37.2374 46.8082ZM40.9353 48.1125C40.9353 47.2205 41.662 46.4972 42.5583 46.4972H52.2962C53.1925 46.4972 53.9191 47.2205 53.9191 48.1125C53.9191 49.0046 53.1925 49.7278 52.2962 49.7278H42.5583C41.662 49.7278 40.9353 49.0046 40.9353 48.1125Z" fill="currentColor"/>
  </symbol>
  <symbol id="logo" viewBox="0 0 106 40">
    <path d="M104.414 19.879L104.39 19.863C102.72 18.7743 101.452 17.9338 100.62 17.3708L100.604 17.3601C98.7414 16.3169 97.1245 15.7805 95.801 15.7699H95.7903H95.7797C92.7752 16.026 90.3871 17.2 88.6768 19.2546C87.7162 20.426 87.2226 21.6053 87.2146 22.7607C87.2092 23.4651 87.4094 24.1162 87.8096 24.6952C87.8256 24.9834 87.9537 25.2155 88.1805 25.3729C88.8155 26.1254 89.7467 26.8405 90.9475 27.4995C91.5398 27.8197 92.6125 28.316 94.136 28.9724C95.222 29.442 96.316 29.909 97.3833 30.3519C98.584 30.9362 99.5392 31.5259 100.233 32.1049V32.1396C100.233 32.1796 100.228 32.2037 100.225 32.2117L100.129 32.2757C99.9875 32.2864 99.8568 32.3264 99.734 32.3958C99.6513 32.4438 99.5312 32.4731 99.3818 32.4891L99.3445 32.4945C98.6854 32.6653 97.6955 32.7106 96.396 32.6306C95.23 32.5665 94.0506 32.4198 92.8873 32.1903C90.259 31.6833 88.3166 31.067 87.1105 30.3625L87.0411 30.2772L87.1185 30.2398L87.1532 30.1918C87.1852 30.1464 87.2813 30.045 87.5801 29.8769L87.6922 29.8129V29.6821C87.6949 29.5034 87.7376 29.354 87.8229 29.2259L87.8363 29.2019C87.895 29.0871 87.9003 28.9644 87.8523 28.8523C87.7776 28.6815 87.5961 28.5535 87.2653 28.4467C87.2119 28.3534 87.1052 28.2626 86.8917 28.2119L86.8677 28.2066C86.6863 28.1853 86.4648 28.1826 86.1846 28.2013C85.6376 28.252 85.2507 28.34 85.0079 28.4681C84.517 28.4814 83.7645 28.7056 83.7539 29.9543C83.7512 30.1945 83.7752 30.3439 83.8286 30.4426C83.9753 30.8108 84.2208 31.1657 84.5543 31.5019C82.4944 32.7213 80.5093 32.9668 77.3073 32.9428C75.0927 32.1369 74.1001 30.624 74.3349 28.4041C74.447 27.9745 74.6631 27.761 74.986 27.7637C77.8116 28.2893 79.2792 28.5695 79.3859 28.6042C80.8908 28.7242 82.1476 28.3213 83.1562 27.3981C84.8879 25.7998 85.7604 24.2309 85.7737 22.6887C85.7897 20.7542 84.4076 18.8811 81.6273 17.0666C80.9495 16.6664 79.8422 16.2448 78.3053 15.8046C77.6249 15.6204 76.9818 15.5244 76.3735 15.519C75.7998 15.5137 75.2448 15.5831 74.7058 15.7218C73.1555 16.7491 71.8214 18.0272 70.6981 19.5588C69.0678 21.8401 68.2433 24.1615 68.2246 26.5256C68.2139 27.8224 68.4407 28.9964 68.9023 30.0557C66.2074 31.9101 63.0455 32.8253 59.414 32.796C57.1994 31.9902 56.2068 30.4773 56.4416 28.2573C56.5537 27.8277 56.7698 27.6143 57.0926 27.6169C59.9183 28.1426 61.3859 28.4227 61.4926 28.4574C62.9975 28.5775 64.2542 28.1746 65.2655 27.2514C66.9972 25.6531 67.8697 24.0841 67.8831 22.5419C67.8991 20.6074 66.5169 18.7343 63.7366 16.9199C63.0589 16.5196 61.9515 16.0981 60.4146 15.6578C59.7342 15.4737 59.0912 15.3776 58.4828 15.3723C57.9091 15.367 57.3541 15.4363 56.8152 15.5751C55.2649 16.6024 53.9308 17.8805 52.8074 19.412C51.444 21.3198 50.6461 23.257 50.4087 25.2235C49.4454 24.0868 47.6043 23.1689 44.8827 22.4645C43.9888 22.2431 42.3799 21.9255 40.0532 21.512C38.0146 21.1384 36.4217 20.7835 35.2797 20.4527V20.2926C35.888 20.1912 37.9159 19.7936 41.3633 19.1052C43.8021 18.6222 45.8139 18.174 47.3935 17.755C52.3832 16.3622 54.7446 14.6439 54.4751 12.6C53.4211 10.0838 51.9296 8.2614 50.0058 7.13539C48.6503 6.30023 46.2569 5.35033 42.8282 4.28303C39.0046 3.06897 34.2791 2.44193 28.6544 2.39657C19.8758 2.32453 10.9825 3.54392 1.96917 6.05208C1.75304 6.04941 1.45687 6.19083 1.07798 6.47367C0.699083 6.75917 0.509638 6.97263 0.509638 7.11405C0.181442 7.79178 0.010673 8.90178 0 10.4414C0.210792 10.8389 0.712424 11.1805 1.49689 11.474L1.76372 11.5834C2.19331 11.586 2.58821 11.554 2.94575 11.4846L3.16455 11.1645C3.16455 11.0924 3.34599 10.8629 3.70621 10.4707C3.71421 9.57685 4.36526 8.7737 5.65937 8.06928C6.66797 7.54097 7.72727 7.20744 8.83726 7.07402C9.16012 7.07669 9.82185 6.9753 10.8278 6.76717C14.558 6.11612 19.2008 5.84929 24.7534 5.9667C30.1619 6.04674 34.6366 6.67378 38.1747 7.84782C38.8178 8.14132 39.6369 8.54156 40.6375 9.0512C42.8495 10.2172 44.1463 11.3913 44.5332 12.576C44.744 13.187 44.3971 13.758 43.4979 14.2863C42.4172 15.0654 40.9791 15.7165 39.1833 16.2395C34.4071 17.5976 28.8652 18.3074 22.5601 18.3634C21.5568 18.3928 21.0579 18.1713 21.0605 17.707L21.0632 17.2774C21.0685 16.4903 21.0926 15.7192 21.1352 14.9667C21.1779 14.2143 21.0045 13.4618 20.6149 12.7067L20.3775 8.72834L20.3801 8.29875L18.8806 7.58899L18.6084 7.85582C17.7439 8.35212 17.2022 9.11791 16.9781 10.1532C16.8287 10.7269 16.7673 11.7008 16.794 13.0803C16.818 14.4598 16.7566 15.4363 16.6099 16.0073C16.3511 17.0453 15.7881 17.8111 14.9262 18.3047L12.0232 18.2807C11.5189 18.4194 11.268 18.5609 11.268 18.7049C11.0172 18.7023 10.8731 18.737 10.8385 18.809C10.8385 18.8464 10.8731 18.8811 10.9452 18.9184L11.2654 19.1372C11.2627 19.5321 11.5109 19.855 12.0098 20.1111L12.2233 20.434C12.2953 20.506 12.4367 20.5967 12.6502 20.7061C12.7222 20.7782 13.1118 20.997 13.8269 21.3599C14.3632 21.6507 14.63 21.8855 14.6274 22.0643L14.6087 24.2683L13.3253 30.2238L13.3173 31.3525C13.1732 31.5312 12.8316 31.6166 12.2926 31.614C11.8284 31.4672 11.4521 31.3738 11.1666 31.3365L10.2541 31.3285C10.0033 31.3978 9.87521 31.63 9.87254 32.0249C10.118 32.4571 10.4569 32.8173 10.8838 33.1082C10.9185 33.1455 11.3294 33.3803 12.1139 33.8179C12.5782 33.9647 12.8103 34.1995 12.8076 34.5224L12.7836 37.4788C12.7783 38.0872 13.1865 38.6448 14.0057 39.1544C14.7181 39.6241 15.4145 39.8989 16.0949 39.9763C16.6659 40.051 17.1702 39.9496 17.6025 39.6668C17.7813 39.6694 17.872 39.544 17.8746 39.2932L17.8773 38.9703L18.1548 37.791C18.1601 37.2173 18.2349 36.7877 18.3789 36.5022L19.4009 36.2407L20.4202 36.3555C23.9636 36.8838 28.4036 37.0999 33.7427 37.0012C38.2574 36.8944 42.5106 36.158 46.497 34.7919C47.9005 34.0501 48.9438 33.3964 49.6295 32.828C50.4834 32.0622 51.017 31.2484 51.2305 30.3866C51.7935 31.4699 52.618 32.4198 53.712 33.2363C54.4591 33.8153 55.8706 34.3836 57.9438 34.9359C60.1611 35.5256 61.8421 35.7364 62.9895 35.5683C65.607 35.2295 67.6376 34.5117 69.0784 33.415C69.6094 33.0335 70.0097 32.6226 70.2818 32.185C70.6687 32.6119 71.1063 33.0095 71.6026 33.3803C72.3497 33.9594 73.7612 34.5277 75.8345 35.08C78.0518 35.6697 79.7328 35.8805 80.8801 35.7124C83.4977 35.3735 85.5282 34.6558 86.9691 33.5591C87.1372 33.4391 87.2786 33.327 87.404 33.2176C89.9789 34.3169 92.9994 34.9973 96.4014 35.2401C97.1085 35.2881 97.7649 35.3095 98.3706 35.3095C99.4005 35.3095 100.281 35.2428 101.004 35.1067C101.634 34.9786 102.285 34.7225 102.931 34.3489C103.929 33.7806 104.435 33.0948 104.443 32.313C104.449 31.6833 104.057 31.0883 103.277 30.5387C100.58 28.7082 97.0871 26.9312 92.8953 25.2555C91.6172 24.7485 90.9715 24.1535 90.9768 23.4838C90.9848 22.5232 91.94 21.5173 93.8212 20.49C94.9685 19.8656 95.9798 19.4334 96.839 19.2012L97.0551 19.1319L97.2792 19.1345C97.3246 19.1826 97.3806 19.2279 97.442 19.2679C97.4687 19.4254 97.5407 19.5268 97.6154 19.5908C97.8236 20.0017 98.1357 20.466 98.5493 20.9783C99.3978 21.9976 100.743 22.4725 102.544 22.3898C104.115 22.3018 104.948 21.8962 105.087 21.1464C105.161 20.7462 104.942 20.3299 104.414 19.879ZM78.4921 19.1986L78.8683 19.0945L79.8342 19.2092L80.0476 19.4787C80.5813 20.0204 80.8988 20.4527 81.0055 20.7755C80.9869 23.2116 80.3812 24.8366 79.1938 25.6504L79.031 25.9172C78.5641 26.056 78.1345 26.0533 77.7423 25.9066C76.7417 25.5757 76.2454 24.9086 76.2534 23.9054C76.2641 22.4058 77.0085 20.8369 78.4921 19.1986ZM60.5987 19.0545L60.975 18.9504L61.9409 19.0652L62.1543 19.3347C62.688 19.8763 63.0055 20.3086 63.1122 20.6314C63.0935 23.0675 62.4879 24.6925 61.3005 25.5063L61.1377 25.7732C60.6708 25.9119 60.2412 25.9092 59.849 25.7625C58.8484 25.4316 58.3521 24.7646 58.3601 23.7613C58.3681 22.2617 59.1152 20.6928 60.5987 19.0545ZM43.5913 28.7002C42.2571 29.6208 40.6562 30.3786 38.7911 30.9736C35.1996 32.0542 31.0398 32.6493 26.309 32.7533C24.66 32.812 22.6188 32.796 20.1827 32.7053C19.0727 32.6599 18.5364 32.4224 18.5764 31.9929C18.6538 31.3125 18.6938 30.7948 18.6965 30.4346C18.9393 27.0326 19.2995 24.5991 19.7771 23.1342L19.9932 22.9741L20.7483 22.7127L23.2192 22.7313L32.8382 22.8087C37.3476 23.5265 40.6348 24.359 42.7054 25.3062C43.9195 25.8532 44.5225 26.4669 44.5172 27.1473C44.5145 27.6516 44.205 28.1666 43.5913 28.7002Z" fill="black"/>
    <path d="M68.0041 10.7834C68.0148 10.8608 68.0201 10.9275 68.0201 10.9836C68.0201 11.3411 67.7586 11.6026 67.233 11.7707C66.9662 11.8481 66.686 11.8774 66.3978 11.8534C66.1177 11.8321 65.8669 11.736 65.6454 11.5679C65.3439 11.3438 65.1598 11.1223 65.0931 10.8982L64.9757 10.7808C64.9757 10.7247 64.9143 10.6981 64.7915 10.6981C64.7915 10.7087 64.7729 10.7221 64.7328 10.7408C64.6928 10.7568 64.6741 10.7728 64.6741 10.7834C64.4954 10.9169 64.3113 11.0556 64.1218 11.2024C63.9324 11.3464 63.7376 11.4425 63.5375 11.4879C63.3934 11.5226 63.1906 11.5386 62.9344 11.5386C62.3314 11.4612 61.8244 11.2104 61.4135 10.7861C61.056 10.3512 60.8559 9.90559 60.8105 9.44932C60.7331 8.60348 61.1174 7.78166 61.9632 6.99185C62.3634 6.62363 62.809 6.30077 63.3 6.02061C63.5668 5.91921 63.8176 5.87119 64.0524 5.87119C64.4767 5.87119 64.8663 6.0046 65.2238 6.27142C65.7361 6.67166 66.0376 7.12527 66.1257 7.6269C66.1257 7.67226 66.147 7.6936 66.1924 7.6936C66.1924 7.78432 66.2858 7.82702 66.4779 7.82702C66.6113 7.88305 66.8114 7.95509 67.0809 8.04314C67.0809 8.06449 67.1369 8.11519 67.249 8.19257L67.3157 8.24326V8.36067L67.249 8.44338C67.193 8.48874 67.1156 8.56612 67.0142 8.67819C66.9128 8.73422 66.8381 8.81694 66.7874 8.92901C66.7367 9.04107 66.6887 9.15314 66.646 9.26254C66.6246 9.47333 66.5686 9.73749 66.4779 10.0497C66.4325 10.1724 66.4112 10.2898 66.4112 10.4019C66.4112 10.546 66.4512 10.674 66.5286 10.7861C66.606 11.0636 66.7394 11.221 66.9288 11.2531C67.0836 11.2877 67.2677 11.2531 67.4811 11.1517C67.6919 11.0503 67.7987 10.9222 67.7987 10.7674C67.7987 10.6901 67.7373 10.6447 67.6146 10.634C67.6706 10.6127 67.7213 10.5993 67.764 10.5993C67.9241 10.5993 68.0041 10.6607 68.0041 10.7834ZM64.9757 8.75824C64.9757 8.70221 64.9543 8.64617 64.9089 8.59014L64.8422 8.55545L64.49 8.18723C64.4794 8.15255 64.4447 8.09651 64.3886 8.01113C64.3326 7.92841 64.3059 7.86437 64.3059 7.81901C64.3273 7.80834 64.3513 7.74964 64.3726 7.64291C64.394 7.53618 64.434 7.48281 64.49 7.48281C64.49 7.44813 64.4633 7.43212 64.4073 7.43212C64.3513 7.44279 64.2952 7.44813 64.2392 7.44813C63.0118 8.4167 62.4008 9.25453 62.4008 9.95628C62.4008 10.1351 62.4568 10.2952 62.5689 10.4419C62.6463 10.4766 62.6916 10.4926 62.7023 10.4926C62.7236 10.4926 62.7637 10.4873 62.8197 10.4766C62.8757 10.4659 62.9131 10.4606 62.9371 10.4606C63.2946 10.3378 63.6389 10.1164 63.9751 9.79085C64.0631 9.68946 64.3379 9.37727 64.7942 8.8543L64.9757 8.75824Z" fill="#FFCD00"/>
    <path d="M70.5511 4.69912C70.6391 4.76582 70.6845 4.83787 70.6845 4.91525C70.6845 5.05933 70.5885 5.23277 70.4017 5.43289C70.0895 5.77976 69.8093 5.99055 69.5665 6.06793L69.4491 6.10262C69.3264 6.14798 69.193 6.16932 69.0489 6.16932C68.9581 6.16932 68.8701 6.16399 68.782 6.15332C68.2457 5.90784 67.9629 5.67836 67.9282 5.46757C67.8935 5.25678 67.9682 4.96061 68.1443 4.58171C68.2777 4.41361 68.4512 4.30955 68.662 4.26419H69.1289C69.6652 4.26419 70.0601 4.31489 70.3163 4.41361C70.4737 4.46965 70.5511 4.56304 70.5511 4.69912ZM71.7385 10.7187C71.7945 10.8308 71.8212 10.9348 71.8212 11.0362C71.8212 11.3271 71.6477 11.5886 71.3035 11.8234C71.0928 11.9568 70.8419 12.0528 70.5511 12.1062C70.3056 12.1409 70.0148 12.1115 69.6812 12.0235C68.5339 11.722 67.9816 11.0469 68.0269 10.0009C68.0483 9.56601 68.1096 9.11508 68.211 8.64547C68.2564 8.41066 68.2777 8.19453 68.2777 7.99441C68.2777 7.78362 68.2511 7.58083 68.195 7.39139V7.30867C68.195 7.298 68.2057 7.28732 68.2297 7.27398C68.2511 7.26331 68.2644 7.2393 68.2644 7.20728C68.4085 7.14057 68.5259 7.10589 68.6166 7.10589C68.662 7.10589 68.6993 7.11656 68.734 7.14057H68.9021C69.2356 7.17526 69.7266 7.25797 70.3723 7.39139L70.4897 7.4741C70.5911 7.54081 70.6285 7.61819 70.6071 7.70891C70.5858 7.8103 70.5298 7.87701 70.439 7.90903C70.1055 8.41066 69.9267 8.96833 69.9027 9.58203C69.892 10.1957 70.0094 10.7534 70.2549 11.255L70.439 11.3724C70.439 11.4071 70.455 11.4231 70.4897 11.4231C70.5671 11.4231 70.7565 11.3404 71.0581 11.1723C71.4316 10.9455 71.6611 10.7961 71.7385 10.7187Z" fill="#FFCD00"/>
    <path d="M77.5587 10.9847C77.5693 11.0407 77.5747 11.0968 77.5747 11.1528C77.5747 11.497 77.3906 11.7612 77.0223 11.9399C76.6995 12.0947 76.3633 12.1454 76.0191 12.0894C74.9811 11.9319 74.3407 11.481 74.0953 10.7339C73.9832 10.411 73.9325 10.0775 73.9458 9.73062C73.9565 9.38642 73.9619 9.06089 73.9619 8.75938L73.727 8.82608V9.14361C73.4709 10.291 72.9239 11.1848 72.0887 11.8199C71.966 11.9319 71.7605 12.0093 71.4697 12.0547C71.1789 12.1 70.9894 12.0333 70.9014 11.8545C70.9014 11.6971 70.9174 11.537 70.9521 11.3689C71.8993 10.355 72.4463 9.4638 72.5904 8.69267C72.6357 8.45786 72.5957 8.1857 72.473 7.87351C72.3289 7.49462 72.2568 7.19311 72.2568 6.97165C72.2462 6.63811 72.3075 6.34194 72.441 6.08578C72.6091 5.76292 72.8465 5.60016 73.1587 5.60016C73.3828 5.60016 73.6657 5.71223 74.0126 5.93369L74.13 6.10179C74.13 6.54739 74.0179 7.01701 73.7964 7.5053V7.53998C73.7964 7.68407 73.8845 7.72409 74.0633 7.65739H74.13C74.6316 7.44659 74.9545 7.33986 75.1012 7.33986C75.5922 7.33986 75.9657 7.48395 76.2219 7.77479C76.3553 7.91887 76.422 8.0763 76.422 8.24173C76.422 8.36447 76.3553 8.53791 76.2219 8.75938C76.1098 8.92748 76.0057 9.09291 75.9043 9.26101C75.6936 9.67458 75.5868 10.0535 75.5868 10.3977C75.5868 10.7446 75.6936 11.0221 75.9043 11.2328V11.3156C75.9817 11.3503 76.0378 11.3716 76.0724 11.3823C76.1071 11.3929 76.1392 11.3983 76.1738 11.3983C76.2085 11.3983 76.2352 11.3876 76.2566 11.3636H76.374C76.6381 11.1581 77.0357 11.0301 77.5587 10.9847Z" fill="#FFCD00"/>
    <path d="M82.2523 1.90513C82.2523 2.03855 82.2203 2.18263 82.1509 2.34006C81.4385 4.02373 80.2564 6.31309 78.6048 9.21348C78.5141 9.35757 78.4874 9.53634 78.5221 9.7498C78.5994 10.3288 78.9276 10.8545 79.5093 11.3214L79.56 11.4041C79.616 11.4148 79.6828 11.4255 79.7601 11.4388C79.8375 11.4495 79.9282 11.4495 80.027 11.4388C80.3845 11.4281 80.678 11.3508 80.9128 11.204C81.0462 11.1159 81.281 10.9025 81.6146 10.569C81.7266 10.7371 81.7827 10.9078 81.7827 11.0866C81.7827 11.3534 81.6439 11.6096 81.3638 11.8551C80.9395 12.2446 80.5206 12.4394 80.1097 12.4394C79.7628 12.4394 79.3919 12.322 78.989 12.0872C78.7435 11.9431 78.4874 11.8017 78.2206 11.6683C77.2733 11.3001 76.7477 10.5423 76.6489 9.39492C76.6276 9.08274 76.6143 8.80524 76.6143 8.55976C76.6143 6.88677 76.9264 4.84288 77.5508 2.42278L78.1192 0.298843C78.1298 0.277497 78.1645 0.248147 78.2206 0.216128C78.2206 0.160095 78.2366 0.130745 78.2713 0.125408C78.3059 0.120072 78.3406 0.104062 78.3806 0.0747108C78.4207 0.0480283 78.4607 0.0266819 78.5061 0.0160089C78.5514 0.00533586 78.6235 0 78.7222 0C79.6801 0.021346 80.702 0.384227 81.7827 1.08598C81.9828 1.33146 82.0842 1.46487 82.0842 1.48622C82.1189 1.57694 82.1749 1.71569 82.2523 1.90513ZM80.7474 1.72102C80.6567 1.65432 80.5686 1.61963 80.4806 1.61963C80.3365 1.61963 80.1897 1.70235 80.0456 1.87045C79.8669 2.07056 79.7281 2.31071 79.6267 2.58821C79.5493 3.02313 79.3679 3.66085 79.0824 4.50401C78.7969 5.34718 78.6181 5.98489 78.5381 6.41982C78.482 6.4972 78.4714 6.58258 78.5034 6.67064C78.5247 6.76136 78.5381 6.8334 78.5381 6.88676L78.6048 6.95347C78.6822 7.0095 79.0184 6.4972 79.608 5.41389C79.8322 5.01365 80.0323 4.65077 80.2111 4.32791L80.4459 3.87697C80.646 3.59948 80.7847 3.24193 80.8648 2.80701C80.9102 2.60689 80.9262 2.4121 80.9155 2.22266C80.8915 2.03321 80.8354 1.86511 80.7474 1.72102Z" fill="#FFCD00"/>
    <path d="M83.7704 4.69967C83.8585 4.76637 83.9038 4.83842 83.9038 4.91579C83.9038 5.05988 83.8078 5.23332 83.621 5.43344C83.3088 5.78031 83.0286 5.9911 82.7858 6.06848L82.6684 6.10317C82.5457 6.14853 82.4123 6.16987 82.2682 6.16987C82.1775 6.16987 82.0894 6.16454 82.0014 6.15387C81.4651 5.90839 81.1822 5.67891 81.1475 5.46812C81.1155 5.25733 81.1876 4.96116 81.3637 4.58226C81.4971 4.41416 81.6705 4.3101 81.8813 4.26474H82.3482C82.8846 4.26474 83.2795 4.31544 83.5356 4.41416C83.693 4.47019 83.7704 4.56359 83.7704 4.69967ZM84.9578 10.7193C85.0138 10.8313 85.0405 10.9354 85.0405 11.0368C85.0405 11.3276 84.8671 11.5891 84.5229 11.8239C84.3121 11.9573 84.0613 12.0534 83.7704 12.1067C83.5249 12.1414 83.2341 12.1121 82.9006 12.024C81.7532 11.7225 81.2009 11.0474 81.2463 10.0015C81.2676 9.56656 81.329 9.11563 81.4304 8.64601C81.4757 8.41121 81.4971 8.19508 81.4971 7.99496C81.4971 7.78417 81.4704 7.58138 81.4144 7.39194V7.30922C81.4144 7.29855 81.425 7.28787 81.4464 7.27453C81.4677 7.26386 81.4811 7.23984 81.4811 7.20783C81.6251 7.14112 81.7425 7.10643 81.8333 7.10643C81.8786 7.10643 81.916 7.1171 81.9507 7.14112H82.1188C82.4523 7.17581 82.9433 7.25852 83.589 7.39194L83.7064 7.47465C83.8078 7.54136 83.8451 7.61874 83.8238 7.70946C83.8024 7.81085 83.7464 7.87756 83.6557 7.90958C83.3222 8.41121 83.1434 8.96888 83.1194 9.58257C83.1087 10.1963 83.2261 10.7539 83.4716 11.2556L83.6557 11.373C83.6557 11.4077 83.6717 11.4237 83.7064 11.4237C83.7838 11.4237 83.9732 11.341 84.2747 11.1729C84.6509 10.9461 84.8804 10.7966 84.9578 10.7193Z" fill="#FFCD00"/>
    <path d="M92.0183 10.1497C92.1303 10.2938 92.1864 10.4405 92.1864 10.5846C92.1864 11.0302 91.8902 11.3264 91.3005 11.4705C90.8763 11.6252 90.5027 11.7053 90.1798 11.7053C89.7343 11.7053 89.35 11.5825 89.0272 11.3371C88.6696 11.0596 88.3574 10.5686 88.0906 9.86685L88.0239 9.74944L87.7891 9.86685C87.7544 9.91221 87.5996 10.2057 87.3221 10.7527C87.1327 11.1209 86.9326 11.3717 86.7191 11.5052C86.6978 11.5052 86.6658 11.5132 86.6284 11.5292C86.5884 11.5452 86.559 11.5532 86.5377 11.5532C86.4603 11.6092 86.4043 11.6359 86.3696 11.6359H86.1188C86.0734 11.6359 86.012 11.6226 85.9347 11.5932C85.8573 11.5665 85.7906 11.5505 85.7345 11.5505L85.6171 11.4998C84.7473 11.209 84.291 10.614 84.2456 9.70942C84.235 9.40791 84.2563 9.03435 84.3124 8.58876C84.3897 8.06578 84.4298 7.70823 84.4298 7.51878C84.4404 7.31866 84.4244 7.16124 84.3791 7.05184C84.3791 6.93977 84.3204 6.8117 84.203 6.66761C84.0855 6.52352 84.0269 6.42747 84.0269 6.38478C84.0269 6.26204 84.2376 6.21134 84.6619 6.23535C85.5985 6.28071 86.1321 6.64893 86.2682 7.34001C86.2895 7.4841 86.3029 7.63619 86.3029 7.79095C86.3029 7.93503 86.2842 8.15383 86.2442 8.442C86.2042 8.73284 86.1855 8.95964 86.1855 9.12774L86.2362 9.19445C86.2362 9.23981 86.2575 9.26115 86.3029 9.26115C86.3482 9.26115 86.3696 9.23981 86.3696 9.19445L86.4203 9.12774C86.543 8.82623 86.6604 8.53272 86.7725 8.24188C86.9166 7.90835 87.0793 7.63886 87.2581 7.43874C87.581 7.07052 87.9892 6.88641 88.4802 6.88641C88.7363 6.88641 89.0378 6.94244 89.382 7.05451C89.6835 7.21194 89.833 7.41739 89.833 7.67354C89.8997 7.90835 89.9264 8.12982 89.9157 8.34328C89.905 8.56741 89.8943 8.78887 89.881 9.01301C89.8703 9.57067 89.937 10.0163 90.0811 10.3498C90.2492 10.7634 90.476 10.9688 90.7669 10.9688C90.9777 10.9688 91.2125 10.8621 91.4686 10.6513C91.6447 10.5046 91.8288 10.3391 92.0183 10.1497Z" fill="#FFCD00"/>
    <path d="M98.1533 9.73097C98.2653 9.92041 98.3214 10.0938 98.3214 10.2486C98.3214 10.5608 98.1533 10.8383 97.8197 11.0838C97.3741 11.428 96.7444 11.6574 95.9306 11.7695C95.5731 11.8255 95.0501 11.7642 94.359 11.5854C93.7133 11.4173 93.273 11.2465 93.0382 11.0678C92.3258 10.5448 91.9683 9.83503 91.9683 8.94383C91.9683 8.20739 92.2191 7.48429 92.7207 6.7692C93.0649 6.28892 93.4785 5.88868 93.9588 5.56582C94.1269 5.52046 94.2976 5.49911 94.4764 5.49911C94.6659 5.49911 94.866 5.5258 95.0794 5.58183C95.5597 5.71524 95.9039 5.84332 96.1174 5.96606C96.9872 6.52372 97.4222 7.10274 97.4222 7.70576C97.4222 8.18605 97.1553 8.67434 96.619 9.17597C96.3068 9.46681 95.9173 9.59489 95.4477 9.5602C95.4156 9.54953 94.9567 9.46681 94.0762 9.30938C93.9748 9.30938 93.9081 9.37609 93.8761 9.5095C93.8094 10.2006 94.1215 10.6702 94.8126 10.913C96.1227 10.9183 97.2381 10.5234 98.1533 9.73097ZM95.928 7.12141C95.8933 7.02002 95.7945 6.88661 95.6264 6.72118L95.5597 6.63846L95.2582 6.60377L95.1408 6.63846C94.6845 7.15077 94.4551 7.64172 94.4551 8.10867C94.4551 8.42085 94.6098 8.62631 94.922 8.7277C95.0448 8.77306 95.1782 8.77306 95.3223 8.7277L95.373 8.64499C95.7438 8.38883 95.928 7.8792 95.928 7.12141Z" fill="#FFCD00"/>
  </symbol>
  <symbol id="money" viewBox="0 0 63 63">
    <path d="M37.2273 11.9659V7.06139C37.2273 -2.35412 0 -2.35412 0 7.06139V35.7478C0 39.4491 5.7939 41.7565 12.7641 42.5768C10.2146 43.7202 8.59091 45.2647 8.59091 47.2223V55.8283C8.59091 60.5361 17.955 62.9998 27.2046 62.9998C36.4542 62.9998 45.8183 60.5359 45.8183 55.8283V51.5015C54.5775 51.2607 63.0001 48.8185 63.0001 44.3537V18.536C63 12.5919 48.1678 10.4049 37.2273 11.9659ZM18.6137 2.86338C28.8043 2.86338 34.3637 5.7004 34.3637 7.15884C34.3637 8.61728 28.8041 11.4543 18.6137 11.4543C8.42326 11.4543 2.86373 8.61728 2.86373 7.15884C2.86359 5.70053 8.42312 2.86338 18.6137 2.86338ZM2.86359 11.1433C6.33795 13.2344 12.4921 14.318 18.6136 14.318C24.735 14.318 30.8893 13.2344 34.3637 11.1433V12.5662C29.3878 13.6697 25.7727 15.6849 25.7727 18.6135V19.4606C23.5288 19.8206 21.1065 20.0452 18.6137 20.0452C8.42312 20.0452 2.86373 17.2082 2.86373 15.7498V11.1433H2.86359ZM28.6363 39.7796C28.9088 39.9435 29.1923 40.1029 29.4966 40.2543C29.2101 40.2423 28.924 40.2306 28.6363 40.2231V39.7796ZM2.86359 19.7342C6.33795 21.8253 12.4921 22.9089 18.6136 22.9089C21.092 22.9089 23.5011 22.6864 25.7726 22.347V29.4834C23.5286 29.8434 21.1064 30.068 18.6136 30.068C8.42299 30.068 2.86359 27.231 2.86359 25.7725V19.7342ZM2.86359 35.7953V29.757C6.33795 31.8481 12.4921 32.9317 18.6136 32.9317C21.092 32.9317 23.5011 32.7092 25.7726 32.3698V39.5062C23.5286 39.8662 21.1064 40.0908 18.6136 40.0908C8.42312 40.0908 2.86359 37.2536 2.86359 35.7953ZM42.9546 55.8407C42.9546 57.2992 37.395 60.1362 27.2046 60.1362C17.0142 60.1362 11.4545 57.2992 11.4545 55.8407V51.2341C14.9289 53.3252 21.083 54.4089 27.2045 54.4089C33.064 54.4089 38.9615 53.4185 42.5031 51.5002C42.6519 51.5058 42.805 51.5065 42.9544 51.5111V55.8407H42.9546ZM27.2046 51.5453C17.014 51.5453 11.4546 48.7083 11.4546 47.2498C11.4546 45.7914 17.0142 42.9544 27.2046 42.9544C37.395 42.9544 42.9546 45.7914 42.9546 47.2498C42.9546 48.7083 37.395 51.5453 27.2046 51.5453ZM60.1364 44.3862C60.1364 45.7721 55.0629 48.374 45.8182 48.632V47.2498C45.8182 45.4609 44.4644 44.0149 42.2807 42.907C42.9809 42.9353 43.6832 42.9544 44.3863 42.9544C50.5077 42.9544 56.662 41.8707 60.1363 39.7796V44.3862H60.1364ZM60.1364 35.7953C60.1364 37.2538 54.5769 40.0908 44.3864 40.0908C34.196 40.0908 28.6365 37.2538 28.6365 35.7953V31.1887C32.1107 33.2798 38.265 34.3635 44.3864 34.3635C50.5079 34.3635 56.6622 33.2798 60.1364 31.1887V35.7953ZM60.1364 27.2044C60.1364 28.6628 54.5769 31.4999 44.3864 31.4999C34.196 31.4999 28.6365 28.6628 28.6365 27.2044V22.5978C32.1107 24.6889 38.265 25.7725 44.3864 25.7725C50.5079 25.7725 56.6622 24.6889 60.1364 22.5978V27.2044ZM44.3864 22.9089C34.1959 22.9089 28.6365 20.0719 28.6365 18.6135C28.6365 17.155 34.196 14.318 44.3864 14.318C54.5769 14.318 60.1364 17.155 60.1364 18.6135C60.1364 20.0719 54.5769 22.9089 44.3864 22.9089Z" fill="currentColor"/>
  </symbol>
  <symbol id="phone" viewBox="0 0 22 22">
    <path d="M20.9999 15.92V18.92C21.0011 19.1985 20.944 19.4742 20.8324 19.7293C20.7209 19.9845 20.5572 20.2136 20.352 20.4019C20.1468 20.5901 19.9045 20.7335 19.6407 20.8227C19.3769 20.9119 19.0973 20.9451 18.8199 20.92C15.7428 20.5856 12.7869 19.5341 10.1899 17.85C7.77376 16.3147 5.72527 14.2662 4.18993 11.85C2.49991 9.2412 1.44818 6.27099 1.11993 3.18C1.09494 2.90347 1.12781 2.62476 1.21643 2.36162C1.30506 2.09849 1.4475 1.85669 1.6347 1.65162C1.82189 1.44655 2.04974 1.28271 2.30372 1.17052C2.55771 1.05833 2.83227 1.00026 3.10993 1H6.10993C6.59524 0.995223 7.06572 1.16708 7.43369 1.48353C7.80166 1.79999 8.04201 2.23945 8.10993 2.72C8.23656 3.68007 8.47138 4.62273 8.80993 5.53C8.94448 5.88792 8.9736 6.27691 8.89384 6.65088C8.81408 7.02485 8.6288 7.36811 8.35993 7.64L7.08993 8.91C8.51349 11.4135 10.5864 13.4864 13.0899 14.91L14.3599 13.64C14.6318 13.3711 14.9751 13.1858 15.3491 13.1061C15.723 13.0263 16.112 13.0555 16.4699 13.19C17.3772 13.5286 18.3199 13.7634 19.2799 13.89C19.7657 13.9585 20.2093 14.2032 20.5265 14.5775C20.8436 14.9518 21.0121 15.4296 20.9999 15.92Z" stroke="currentColor" stroke-width="2" stroke-linecap="round" stroke-linejoin="round"/>
  </symbol>
  <symbol id="plane" viewBox="0 0 22 22">
    <path d="M20.308 5.3931L16.6506 8.82732L20.1285 18.3916L17.5201 21L12.3241 13.3943L9.69477 15.7831V18.3916L7.08634 21L5.54384 16.4511L1 14.9137L3.60843 12.3052H6.21686L8.82529 9.6968L1 4.47994L3.60843 1.8715L13.1727 5.34941L16.6191 1.70423L16.5451 1.76602C16.7872 1.52337 17.0748 1.33082 17.3914 1.19938C17.708 1.06794 18.0474 1.00019 18.3901 1C18.7329 0.999812 19.0724 1.06719 19.3891 1.19828C19.7058 1.32937 19.9936 1.52161 20.236 1.76399C20.4784 2.00638 20.6706 2.29416 20.8017 2.61089C20.9328 2.92762 21.0002 3.26708 21 3.60987C20.9998 3.95265 20.9321 4.29204 20.8006 4.60862C20.6692 4.92521 20.4766 5.21278 20.234 5.4549L20.308 5.3931Z" stroke="black" stroke-width="2" stroke-linecap="round" stroke-linejoin="round"/>
  </symbol>
  <symbol id="ticket" viewBox="0 0 22 16">
    <path fill-rule="evenodd" clip-rule="evenodd" d="M22 13.999C22 15.1036 21.1046 15.999 20 15.999H2C0.89543 15.999 0 15.1036 0 13.999L0 10.8871L0.499274 10.5983C1.42113 10.065 2 9.08299 2 7.99902C2 6.91506 1.42113 5.93302 0.499274 5.39976L0 5.11094L0 1.99902C0 0.894454 0.89543 -0.000976562 2 -0.000976562L20 -0.000976562C21.1046 -0.000976562 22 0.894454 22 1.99902V5.11094L21.5007 5.39976C20.5789 5.93302 20 6.91506 20 7.99902C20 9.08299 20.5789 10.065 21.5007 10.5983L22 10.8871V13.999ZM18 7.99902C18 6.39852 18.759 4.92941 20 3.99849V1.99902H14C14 2.55131 13.5523 2.99902 13 2.99902C12.4477 2.99902 12 2.55131 12 1.99902L2 1.99902L2 3.99849C3.24101 4.92941 4 6.39852 4 7.99902C4 9.59953 3.24101 11.0686 2 11.9996L2 13.999H12C12 13.4467 12.4477 12.999 13 12.999C13.5523 12.999 14 13.4467 14 13.999L20 13.999V11.9996C18.759 11.0686 18 9.59953 18 7.99902ZM13 11.999C13.5523 11.999 14 11.5513 14 10.999C14 10.4467 13.5523 9.99902 13 9.99902C12.4477 9.99902 12 10.4467 12 10.999C12 11.5513 12.4477 11.999 13 11.999ZM14 7.99902C14 8.55131 13.5523 8.99902 13 8.99902C12.4477 8.99902 12 8.55131 12 7.99902C12 7.44674 12.4477 6.99902 13 6.99902C13.5523 6.99902 14 7.44674 14 7.99902ZM13 5.99902C13.5523 5.99902 14 5.55131 14 4.99902C14 4.44674 13.5523 3.99902 13 3.99902C12.4477 3.99902 12 4.44674 12 4.99902C12 5.55131 12.4477 5.99902 13 5.99902Z" fill="currentColor"/>
  </symbol>
  <symbol id="calendar" viewBox="0 0 20 21">
    <path d="M17 3H3C1.89543 3 1 3.84568 1 4.88889V18.1111C1 19.1543 1.89543 20 3 20H17C18.1046 20 19 19.1543 19 18.1111V4.88889C19 3.84568 18.1046 3 17 3Z" stroke="black" stroke-width="2" stroke-linecap="round" stroke-linejoin="round"/>
    <path d="M14 1V5" stroke="black" stroke-width="2" stroke-linecap="round" stroke-linejoin="round"/>
    <path d="M6 1V5" stroke="black" stroke-width="2" stroke-linecap="round" stroke-linejoin="round"/>
    <path d="M1 9H19" stroke="black" stroke-width="2" stroke-linecap="round" stroke-linejoin="round"/>
  </symbol>
  <symbol id="yellow-plane" viewBox="0 0 17 16">
    <path d="M5.09944 16H6.80112L11.0497 9.26403H15.7237C16.429 9.26403 17 8.69855 17 8C17 7.30146 16.429 6.73597 15.7237 6.73597H11.0497L6.80112 0H5.09944L7.22654 6.73597H2.55252L1.27626 5.05059H0L0.85084 7.99446L0 10.9383H1.27626L2.55252 9.25294H7.22654L5.09944 16Z" fill="#FFCD00"/>
  </symbol>
  <symbol id="wallet" viewBox="0 0 161 162">
    <path d="M153.68 81.4044V58.7552C153.68 51.0751 147.728 44.8292 140.208 44.2235L119.194 7.4848C117.247 4.08699 114.102 1.65846 110.339 0.650037C106.594 -0.351521 102.678 0.174494 99.3266 2.12714L27.2884 44.1054H14.6362C6.5643 44.1054 0 50.6754 0 58.7552V146.653C0 154.733 6.56396 161.303 14.6362 161.303H139.043C147.115 161.303 153.68 154.733 153.68 146.653V124.004C157.93 122.487 160.998 118.46 160.998 113.692V91.717C160.998 86.9485 157.93 82.9213 153.68 81.4044ZM131.705 44.1054H99.8127L123.732 30.1666L131.705 44.1054ZM120.096 23.8102L85.2684 44.1054H70.8222L116.484 17.4956L120.096 23.8102ZM103.01 8.45752C104.665 7.48824 106.598 7.23072 108.445 7.72446C110.314 8.22507 111.872 9.43401 112.841 11.1257L112.848 11.1391L56.2785 44.1054H41.833L103.01 8.45752ZM146.361 146.653C146.361 150.691 143.078 153.978 139.043 153.978H14.6362C10.6022 153.978 7.31829 150.691 7.31829 146.653V58.7552C7.31829 54.7174 10.6022 51.4304 14.6362 51.4304H139.043C143.078 51.4304 146.361 54.7174 146.361 58.7552V80.7297H124.407C112.301 80.7297 102.453 90.5867 102.453 102.704C102.453 114.822 112.301 124.679 124.407 124.679H146.361V146.653ZM153.68 113.692C153.68 115.712 152.04 117.354 150.021 117.354H124.407C116.335 117.354 109.771 110.784 109.771 102.704C109.771 94.6248 116.335 88.0544 124.407 88.0544H150.021C152.039 88.0544 153.68 89.696 153.68 91.717V113.692Z" fill="black"/>
    <path d="M124.408 95.3797C120.374 95.3797 117.09 98.6666 117.09 102.704C117.09 106.742 120.374 110.029 124.408 110.029C128.442 110.029 131.726 106.742 131.726 102.704C131.726 98.6666 128.442 95.3797 124.408 95.3797Z" fill="black"/>
  </symbol>
</svg>
